<svg xmlns="http://www.w3.org/2000/svg" viewBox="0 0 1440 320"><path fill="#A7C7E7" fill-opacity="1" d="M0,224L40,192C80,160,160,96,240,85.3C320,75,400,117,480,117.3C560,117,640,75,720,90.7C800,107,880,181,960,197.3C1040,213,1120,171,1200,144C1280,117,1360,107,1400,101.3L1440,96L1440,320L1400,320C1360,320,1280,320,1200,320C1120,320,1040,320,960,320C880,320,800,320,720,320C640,320,560,320,480,320C400,320,320,320,240,320C160,320,80,320,40,320L0,320Z" style="--darkreader-inline-fill: #A7C7E7;" data-darkreader-inline-fill=""></path></svg>