<svg xmlns="http://www.w3.org/2000/svg" viewBox="0 0 1440 320"><path fill="#A4D8D8" fill-opacity="1" d="M0,96L34.3,85.3C68.6,75,137,53,206,58.7C274.3,64,343,96,411,101.3C480,107,549,85,617,112C685.7,139,754,213,823,202.7C891.4,192,960,96,1029,90.7C1097.1,85,1166,171,1234,218.7C1302.9,267,1371,277,1406,282.7L1440,288L1440,320L1405.7,320C1371.4,320,1303,320,1234,320C1165.7,320,1097,320,1029,320C960,320,891,320,823,320C754.3,320,686,320,617,320C548.6,320,480,320,411,320C342.9,320,274,320,206,320C137.1,320,69,320,34,320L0,320Z" style="--darkreader-inline-fill: #007acc;" data-darkreader-inline-fill=""></path></svg>